<mxfile host="app.diagrams.net" modified="2023-03-23T22:24:07.618Z" agent="Mozilla/5.0 (Macintosh; Intel Mac OS X 10_15_7) AppleWebKit/537.36 (KHTML, like Gecko) Chrome/111.0.0.0 Safari/537.36" etag="ih6JadPbdaql4Xi36eP_" version="21.1.0" type="github">
  <diagram name="PÃ¡gina-1" id="wY1jWhhq4TVxJNEBBOuB">
    <mxGraphModel dx="1164" dy="708" grid="1" gridSize="10" guides="1" tooltips="1" connect="1" arrows="1" fold="1" page="1" pageScale="1" pageWidth="827" pageHeight="1169" math="0" shadow="0">
      <root>
        <mxCell id="0" />
        <mxCell id="1" parent="0" />
        <mxCell id="c36DzWKBf-Bude1BYzwx-10" style="edgeStyle=orthogonalEdgeStyle;rounded=0;orthogonalLoop=1;jettySize=auto;html=1;exitX=1;exitY=0.5;exitDx=0;exitDy=0;entryX=0;entryY=0.5;entryDx=0;entryDy=0;" edge="1" parent="1" source="c36DzWKBf-Bude1BYzwx-1" target="c36DzWKBf-Bude1BYzwx-9">
          <mxGeometry relative="1" as="geometry" />
        </mxCell>
        <mxCell id="c36DzWKBf-Bude1BYzwx-16" style="edgeStyle=orthogonalEdgeStyle;rounded=0;orthogonalLoop=1;jettySize=auto;html=1;exitX=0.5;exitY=1;exitDx=0;exitDy=0;entryX=0.5;entryY=0;entryDx=0;entryDy=0;" edge="1" parent="1" source="c36DzWKBf-Bude1BYzwx-1" target="c36DzWKBf-Bude1BYzwx-4">
          <mxGeometry relative="1" as="geometry" />
        </mxCell>
        <mxCell id="c36DzWKBf-Bude1BYzwx-1" value="ARTISTA" style="rounded=0;whiteSpace=wrap;html=1;" vertex="1" parent="1">
          <mxGeometry x="120" y="90" width="110" height="30" as="geometry" />
        </mxCell>
        <mxCell id="c36DzWKBf-Bude1BYzwx-11" style="edgeStyle=orthogonalEdgeStyle;rounded=0;orthogonalLoop=1;jettySize=auto;html=1;exitX=0;exitY=0.5;exitDx=0;exitDy=0;entryX=1;entryY=0.5;entryDx=0;entryDy=0;" edge="1" parent="1" source="c36DzWKBf-Bude1BYzwx-2" target="c36DzWKBf-Bude1BYzwx-9">
          <mxGeometry relative="1" as="geometry" />
        </mxCell>
        <mxCell id="c36DzWKBf-Bude1BYzwx-2" value="GENERO" style="rounded=0;whiteSpace=wrap;html=1;" vertex="1" parent="1">
          <mxGeometry x="530" y="90" width="110" height="30" as="geometry" />
        </mxCell>
        <mxCell id="c36DzWKBf-Bude1BYzwx-27" value="" style="whiteSpace=wrap;html=1;aspect=fixed;" vertex="1" parent="1">
          <mxGeometry x="379" y="180" width="70" height="70" as="geometry" />
        </mxCell>
        <mxCell id="c36DzWKBf-Bude1BYzwx-3" value="PAIS" style="rounded=0;whiteSpace=wrap;html=1;" vertex="1" parent="1">
          <mxGeometry x="440" y="200" width="110" height="30" as="geometry" />
        </mxCell>
        <mxCell id="c36DzWKBf-Bude1BYzwx-5" value="1" style="text;html=1;align=center;verticalAlign=middle;resizable=0;points=[];autosize=1;strokeColor=none;fillColor=none;" vertex="1" parent="1">
          <mxGeometry x="300" y="65" width="30" height="30" as="geometry" />
        </mxCell>
        <mxCell id="c36DzWKBf-Bude1BYzwx-6" value="N" style="text;html=1;align=center;verticalAlign=middle;resizable=0;points=[];autosize=1;strokeColor=none;fillColor=none;" vertex="1" parent="1">
          <mxGeometry x="430" y="65" width="30" height="30" as="geometry" />
        </mxCell>
        <mxCell id="c36DzWKBf-Bude1BYzwx-25" value="" style="whiteSpace=wrap;html=1;aspect=fixed;" vertex="1" parent="1">
          <mxGeometry x="220" y="180" width="70" height="70" as="geometry" />
        </mxCell>
        <mxCell id="c36DzWKBf-Bude1BYzwx-4" value="MUSICA" style="rounded=0;whiteSpace=wrap;html=1;" vertex="1" parent="1">
          <mxGeometry x="120" y="200" width="110" height="30" as="geometry" />
        </mxCell>
        <mxCell id="c36DzWKBf-Bude1BYzwx-7" value="1" style="text;html=1;align=center;verticalAlign=middle;resizable=0;points=[];autosize=1;strokeColor=none;fillColor=none;" vertex="1" parent="1">
          <mxGeometry x="430" y="110" width="30" height="30" as="geometry" />
        </mxCell>
        <mxCell id="c36DzWKBf-Bude1BYzwx-8" value="N" style="text;html=1;align=center;verticalAlign=middle;resizable=0;points=[];autosize=1;strokeColor=none;fillColor=none;" vertex="1" parent="1">
          <mxGeometry x="300" y="110" width="30" height="30" as="geometry" />
        </mxCell>
        <mxCell id="c36DzWKBf-Bude1BYzwx-9" value="GENERO_ARTISTA" style="rounded=0;whiteSpace=wrap;html=1;" vertex="1" parent="1">
          <mxGeometry x="320" y="90" width="120" height="30" as="geometry" />
        </mxCell>
        <mxCell id="c36DzWKBf-Bude1BYzwx-12" value="1" style="text;html=1;align=center;verticalAlign=middle;resizable=0;points=[];autosize=1;strokeColor=none;fillColor=none;" vertex="1" parent="1">
          <mxGeometry x="125" y="115" width="30" height="30" as="geometry" />
        </mxCell>
        <mxCell id="c36DzWKBf-Bude1BYzwx-13" value="N" style="text;html=1;align=center;verticalAlign=middle;resizable=0;points=[];autosize=1;strokeColor=none;fillColor=none;" vertex="1" parent="1">
          <mxGeometry x="125" y="175" width="30" height="30" as="geometry" />
        </mxCell>
        <mxCell id="c36DzWKBf-Bude1BYzwx-14" value="1" style="text;html=1;align=center;verticalAlign=middle;resizable=0;points=[];autosize=1;strokeColor=none;fillColor=none;" vertex="1" parent="1">
          <mxGeometry x="185" y="175" width="30" height="30" as="geometry" />
        </mxCell>
        <mxCell id="c36DzWKBf-Bude1BYzwx-19" value="N" style="text;html=1;align=center;verticalAlign=middle;resizable=0;points=[];autosize=1;strokeColor=none;fillColor=none;" vertex="1" parent="1">
          <mxGeometry x="240" y="210" width="30" height="30" as="geometry" />
        </mxCell>
        <mxCell id="c36DzWKBf-Bude1BYzwx-20" value="1" style="text;html=1;align=center;verticalAlign=middle;resizable=0;points=[];autosize=1;strokeColor=none;fillColor=none;" vertex="1" parent="1">
          <mxGeometry x="399" y="210" width="30" height="30" as="geometry" />
        </mxCell>
        <mxCell id="c36DzWKBf-Bude1BYzwx-15" value="1" style="text;html=1;align=center;verticalAlign=middle;resizable=0;points=[];autosize=1;strokeColor=none;fillColor=none;" vertex="1" parent="1">
          <mxGeometry x="185" y="115" width="30" height="30" as="geometry" />
        </mxCell>
        <mxCell id="c36DzWKBf-Bude1BYzwx-18" value="N" style="text;html=1;align=center;verticalAlign=middle;resizable=0;points=[];autosize=1;strokeColor=none;fillColor=none;" vertex="1" parent="1">
          <mxGeometry x="399" y="190" width="30" height="30" as="geometry" />
        </mxCell>
        <mxCell id="c36DzWKBf-Bude1BYzwx-17" value="1" style="text;html=1;align=center;verticalAlign=middle;resizable=0;points=[];autosize=1;strokeColor=none;fillColor=none;" vertex="1" parent="1">
          <mxGeometry x="240" y="180" width="30" height="30" as="geometry" />
        </mxCell>
        <mxCell id="c36DzWKBf-Bude1BYzwx-21" value="MUSICA_PAIS" style="rounded=0;whiteSpace=wrap;html=1;" vertex="1" parent="1">
          <mxGeometry x="280" y="200" width="120" height="30" as="geometry" />
        </mxCell>
        <mxCell id="c36DzWKBf-Bude1BYzwx-28" value="N:N" style="rounded=0;whiteSpace=wrap;html=1;fillColor=#d5e8d4;strokeColor=#82b366;" vertex="1" parent="1">
          <mxGeometry x="310" y="310" width="40" height="20" as="geometry" />
        </mxCell>
        <mxCell id="c36DzWKBf-Bude1BYzwx-30" value="" style="endArrow=none;html=1;rounded=0;entryX=0.5;entryY=1;entryDx=0;entryDy=0;exitX=0.5;exitY=0;exitDx=0;exitDy=0;fillColor=#d5e8d4;strokeColor=#82b366;" edge="1" parent="1" source="c36DzWKBf-Bude1BYzwx-28" target="c36DzWKBf-Bude1BYzwx-27">
          <mxGeometry width="50" height="50" relative="1" as="geometry">
            <mxPoint x="380" y="350" as="sourcePoint" />
            <mxPoint x="430" y="300" as="targetPoint" />
          </mxGeometry>
        </mxCell>
        <mxCell id="c36DzWKBf-Bude1BYzwx-31" value="" style="endArrow=none;html=1;rounded=0;entryX=0.5;entryY=1;entryDx=0;entryDy=0;fillColor=#d5e8d4;strokeColor=#82b366;" edge="1" parent="1" target="c36DzWKBf-Bude1BYzwx-25">
          <mxGeometry width="50" height="50" relative="1" as="geometry">
            <mxPoint x="330" y="310" as="sourcePoint" />
            <mxPoint x="430" y="300" as="targetPoint" />
          </mxGeometry>
        </mxCell>
      </root>
    </mxGraphModel>
  </diagram>
</mxfile>
